<svg xmlns="http://www.w3.org/2000/svg" width="409.997" height="100" viewBox="0 0 409.997 100">
  <g id="Group_1" data-name="Group 1" transform="translate(-136.786 -178.856)">
    <path id="bolt-svgrepo-com" d="M94.173,34.365,44.768,100,56.159,53.834l-26.5.446L40.482,0H72.627l-12.9,34.4Z" transform="translate(107.127 178.856)" fill="#49a6e9"/>
    <path id="Path_1" data-name="Path 1" d="M65.394-6.118H52.811l-6.219-17.6H19.4l-5.978,17.6H.888L26.777-75.252H39.7ZM43.555-33.067,33.961-60.644a32.666,32.666,0,0,1-.916-4.339h-.193a28.222,28.222,0,0,1-.964,4.339l-9.5,27.577ZM102.276-44.83a9.271,9.271,0,0,0-5.834-1.591,9.986,9.986,0,0,0-8.292,4.484q-3.327,4.484-3.327,12.2V-6.118H73.638V-55.485H84.823v10.172h.193a17.2,17.2,0,0,1,5.038-8.124,11.37,11.37,0,0,1,7.593-2.917,9.426,9.426,0,0,1,4.628.916ZM183.993-6.118H172.808v-26.9q0-7.762-2.194-11.233t-7.4-3.471q-4.387,0-7.449,4.387a17.9,17.9,0,0,0-3.061,10.51V-6.118H141.471V-33.935q0-13.788-9.739-13.788a8.785,8.785,0,0,0-7.449,4.146q-2.917,4.146-2.917,10.751V-6.118H110.182V-55.485h11.185v7.81h.193q5.351-8.967,15.572-8.967a14.682,14.682,0,0,1,8.943,2.82,14.046,14.046,0,0,1,5.231,7.4q5.5-10.221,16.392-10.221,16.3,0,16.3,20.1Zm51.537,0H224.683v-7.714h-.193Q219.379-4.96,209.5-4.96q-7.28,0-11.4-3.953a13.827,13.827,0,0,1-4.122-10.462q0-13.981,16.1-16.3l14.656-2.073q0-10.558-10.028-10.558a23.82,23.82,0,0,0-15.91,6.075v-9.787a34.7,34.7,0,0,1,18.031-4.628q18.706,0,18.706,18.417Zm-10.8-24.25-10.365,1.446a16.429,16.429,0,0,0-7.256,2.338q-2.435,1.711-2.435,6a6.571,6.571,0,0,0,2.242,5.134,8.681,8.681,0,0,0,6,2,11.075,11.075,0,0,0,8.461-3.592,12.735,12.735,0,0,0,3.351-9.04Zm53.08-14.463a9.271,9.271,0,0,0-5.834-1.591,9.986,9.986,0,0,0-8.292,4.484q-3.327,4.484-3.327,12.2v23.62H249.174V-55.485h11.185v10.172h.193a17.2,17.2,0,0,1,5.038-8.124,11.37,11.37,0,0,1,7.593-2.917,9.426,9.426,0,0,1,4.628.916Zm52.7,38.713H316.331l-19.188-23.72h-.193v23.72H285.717V-79.205H296.95v46.331h.193L315.27-55.485h13.451L308.328-31.669Z" transform="translate(216.278 266.107)" fill="#fff"/>
  </g>
</svg>
